<svg xmlns="http://www.w3.org/2000/svg" width="35" height="35" viewBox="0 0 24 24" aria-hidden="false" role="img" aria-label="Qube favicon">
	<!-- Circular background to match .profile-picture (fill #383838) -->
	<!-- <circle cx="12" cy="12" r="12" fill="#383838" /> -->

	<!-- Icon paths in white to match profile text color -->
	<g fill="none" stroke="#ffffff" stroke-width="2" stroke-linecap="round" stroke-linejoin="round">
		<path d="M15.236 22a3 3 0 0 0-2.2-5"/>
		<path d="M16 20a3 3 0 0 1 3-3h1a2 2 0 0 0 2-2v-2a4 4 0 0 0-4-4V4"/>
		<path d="M18 13h.01"/>
		<path d="M18 6a4 4 0 0 0-4 4 7 7 0 0 0-7 7c0-5 4-5 4-10.5a4.5 4.5 0 1 0-9 0 2.5 2.5 0 0 0 5 0C7 10 3 11 3 17c0 2.8 2.2 5 5 5h10"/>
	</g>
</svg>